<svg width="1043" height="666" viewBox="0 0 1043 666" fill="none" xmlns="http://www.w3.org/2000/svg">
<rect width="1043" height="666" rx="64" fill="#4A67FF"/>
<g filter="url(#filter0_d_5_190)">
<path d="M399.741 311.681C413.883 311.681 424.136 315.217 430.5 322.288C437.006 329.359 440.258 338.692 440.258 350.289C440.258 366.976 435.804 381.896 426.894 395.048C418.126 408.059 406.671 414.564 392.529 414.564C386.165 414.564 381.145 413.291 377.468 410.746C373.791 408.059 371.952 404.241 371.952 399.291C371.952 392.361 374.215 386.704 378.741 382.32C383.407 377.795 389.276 375.532 396.347 375.532C400.307 375.532 403.772 376.522 406.742 378.502C405.469 373.694 402.287 370.441 397.196 368.744C392.105 367.047 386.448 367.401 380.225 369.805C374.144 372.209 369.265 376.381 365.589 382.32C364.174 382.038 361.134 381.896 356.467 381.896C347.982 381.896 339.85 384.795 332.072 390.593C324.435 396.392 318.92 404.241 315.526 414.14L306.404 458.051C304.424 464.839 303.859 470.425 304.707 474.809C305.697 479.193 308.738 482.799 313.829 485.628C319.061 488.315 327.759 491.143 339.921 494.113L327.617 550.54H210.309L222.613 494.113C236.189 491.143 246.018 488.385 252.099 485.84C258.321 483.153 262.564 480.112 264.827 476.718C267.231 473.324 269.352 467.809 271.191 460.172L281.585 410.746C282.575 406.22 283.211 402.402 283.494 399.291C283.777 396.18 283.494 393.351 282.646 390.806C281.797 388.26 280.666 386.209 279.252 384.654C277.979 382.957 275.716 381.401 272.463 379.987C269.352 378.431 266.029 377.159 262.493 376.169C258.958 375.037 254.22 373.764 248.281 372.35L260.372 315.924H336.315L324.647 371.077C332.85 352.41 342.891 337.844 354.77 327.379C366.791 316.914 381.781 311.681 399.741 311.681ZM516.201 554.782C490.604 554.782 471.3 547.923 458.289 534.206C445.279 520.488 438.773 501.043 438.773 475.87C438.773 454.374 441.743 433.797 447.683 414.14C453.623 394.483 461.966 377.017 472.714 361.744C483.604 346.47 497.251 334.308 513.655 325.257C530.06 316.206 548.091 311.681 567.749 311.681C593.204 311.681 612.367 318.469 625.236 332.046C638.246 345.622 644.752 365.138 644.752 390.593C644.752 407.705 642.913 424.322 639.236 440.444C635.56 456.566 630.044 471.556 622.69 485.416C615.336 499.133 606.568 511.225 596.386 521.69C586.204 532.014 574.183 540.145 560.324 546.085C546.606 551.883 531.899 554.782 516.201 554.782ZM530.838 485.416C553.465 485.416 571.708 478.91 585.568 465.9C599.568 452.889 606.568 436.06 606.568 415.413C606.568 403.392 602.184 394.695 593.416 389.321C584.79 383.805 571.355 381.048 553.112 381.048C530.626 381.048 512.383 387.553 498.382 400.564C484.381 413.433 477.381 430.12 477.381 450.626C477.381 462.788 481.694 471.627 490.321 477.143C498.948 482.658 512.453 485.416 530.838 485.416ZM710.3 554.782C690.784 554.782 678.41 549.125 673.177 537.812C667.945 526.498 667.733 509.316 672.541 486.264L706.906 323.772C707.896 319.247 708.532 315.429 708.815 312.317C709.098 309.206 708.815 306.378 707.967 303.832C707.118 301.287 705.987 299.236 704.573 297.68C703.3 296.125 701.037 294.64 697.784 293.226C694.673 291.67 691.35 290.397 687.814 289.407C684.42 288.276 679.753 287.003 673.814 285.589L685.693 228.95H763.757L716.028 454.02C713.623 463.496 713.058 471.132 714.331 476.93C715.603 482.587 719.492 485.416 725.998 485.416C732.503 485.416 738.443 481.88 743.817 474.809C749.332 467.597 752.09 460.243 752.09 452.748H777.757C781.293 468.304 780.515 484.001 775.424 499.841C770.474 515.68 762.06 528.832 750.181 539.297C738.301 549.62 725.008 554.782 710.3 554.782ZM834.184 445.323L858.155 232.981H942.795L877.671 445.323H834.184ZM833.336 554.782C823.012 554.782 814.597 551.671 808.092 545.448C801.728 539.226 798.546 531.094 798.546 521.054C798.546 508.326 803.92 496.8 814.668 486.476C825.416 476.153 837.578 470.991 851.155 470.991C860.63 470.991 868.478 474.173 874.701 480.537C881.065 486.759 884.247 494.467 884.247 503.659C884.247 516.669 878.944 528.478 868.337 539.085C857.872 549.55 846.205 554.782 833.336 554.782Z" fill="white"/>
</g>
<g filter="url(#filter1_d_5_190)">
<path d="M166.2 222.88C159.431 222.88 152.914 221.783 146.646 219.59C140.379 217.334 135.084 213.824 130.759 209.061C126.435 204.235 123.677 197.999 122.487 190.354H146.27C147.085 193.8 148.558 196.527 150.689 198.532C152.882 200.538 155.358 201.979 158.115 202.857C160.873 203.671 163.505 204.079 166.012 204.079C171.276 204.079 175.507 203.264 178.703 201.634C181.962 199.942 183.591 197.373 183.591 193.926C183.591 191.294 182.62 189.194 180.677 187.627C178.797 186.061 175.663 184.87 171.276 184.055L154.167 180.483C145.581 178.665 138.687 175.594 133.485 171.27C128.284 166.883 125.62 160.678 125.495 152.657C125.495 146.828 127.03 141.595 130.101 136.957C133.235 132.32 137.841 128.653 143.92 125.958C149.999 123.263 157.457 121.916 166.294 121.916C178.264 121.916 187.822 124.548 194.966 129.813C202.174 135.077 205.84 142.504 205.965 152.092H183.027C182.338 148.332 180.458 145.449 177.387 143.444C174.379 141.376 170.587 140.342 166.012 140.342C161.249 140.342 157.332 141.188 154.261 142.88C151.19 144.572 149.655 147.141 149.655 150.588C149.655 153.158 150.908 155.195 153.415 156.699C155.922 158.14 159.808 159.394 165.072 160.459L180.865 164.031C186.318 165.348 190.736 167.165 194.12 169.484C197.567 171.74 200.231 174.216 202.111 176.91C203.991 179.605 205.276 182.332 205.965 185.089C206.717 187.784 207.093 190.228 207.093 192.422C207.093 198.877 205.37 204.392 201.923 208.967C198.476 213.479 193.682 216.926 187.54 219.308C181.398 221.689 174.285 222.88 166.2 222.88ZM284.472 142.88H262.85L263.038 194.678C263.038 197.059 263.32 198.846 263.884 200.036C264.511 201.164 265.451 201.916 266.704 202.292C268.02 202.606 269.681 202.763 271.687 202.763H284.754V219.684C283.5 220.248 281.526 220.781 278.831 221.282C276.199 221.783 272.502 222.034 267.738 222.034C259.215 222.034 252.603 220.937 247.903 218.744C243.265 216.55 240.038 213.479 238.22 209.531C236.403 205.583 235.494 201.008 235.494 195.806V142.88H219.701V123.796H236.434L243.296 94.4658H262.85V123.702H284.472V142.88ZM339.648 222.88C335.136 222.88 330.686 222.191 326.299 220.812C321.975 219.433 318.027 217.396 314.454 214.701C310.882 212.007 307.999 208.685 305.806 204.737C303.675 200.788 302.609 196.213 302.609 191.012V123.796H330.06V187.533C330.06 192.046 331.532 195.743 334.478 198.626C337.424 201.509 341.748 202.951 347.451 202.951C352.841 202.951 357.102 201.572 360.236 198.814C363.432 195.994 365.03 192.077 365.03 187.063V123.796H392.199V221H371.517L368.321 201.728C367.193 207.432 365.062 211.819 361.928 214.89C358.857 217.898 355.316 219.966 351.305 221.094C347.357 222.285 343.471 222.88 339.648 222.88ZM450.646 222.88C437.611 222.88 427.458 218.399 420.188 209.437C412.918 200.412 409.283 187.878 409.283 171.834C409.283 161.681 410.756 152.876 413.701 145.418C416.647 137.96 421.003 132.194 426.768 128.121C432.534 123.984 439.585 121.916 447.92 121.916C451.43 121.916 454.689 122.323 457.697 123.138C460.768 123.89 463.557 124.956 466.064 126.334C468.57 127.713 470.764 129.311 472.644 131.129C474.524 132.946 476.06 134.889 477.25 136.957V81.3048H504.795V221H484.865L481.763 201.07C480.885 203.765 479.663 206.397 478.096 208.967C476.53 211.537 474.524 213.887 472.08 216.018C469.636 218.086 466.628 219.747 463.055 221C459.546 222.253 455.409 222.88 450.646 222.88ZM456.663 203.139C463.557 203.139 468.696 200.726 472.08 195.9C475.527 191.074 477.25 182.927 477.25 171.458C477.188 164.815 476.404 159.3 474.9 154.913C473.396 150.526 471.14 147.267 468.132 145.136C465.186 142.942 461.426 141.846 456.851 141.846C450.897 141.846 445.946 144.133 441.998 148.708C438.049 153.221 436.075 160.804 436.075 171.458C436.075 182.3 437.924 190.291 441.622 195.43C445.319 200.569 450.333 203.139 456.663 203.139ZM543.52 252.022C536.877 252.022 532.176 251.458 529.419 250.33C526.724 249.265 525.376 248.732 525.376 248.732V231.247L534.965 231.623C539.164 231.874 542.548 231.654 545.118 230.965C547.688 230.338 549.63 229.492 550.946 228.427C552.325 227.361 553.297 226.233 553.861 225.042C554.425 223.914 554.832 223.005 555.083 222.316L556.869 216.958L519.078 123.796H546.246L569.56 187.157L593.156 123.796H619.948L580.559 221.564C577.175 229.837 573.602 236.167 569.842 240.554C566.082 244.941 562.008 247.949 557.621 249.578C553.297 251.208 548.596 252.022 543.52 252.022Z" fill="white" fill-opacity="0.6" shape-rendering="crispEdges"/>
</g>
<defs>
<filter id="filter0_d_5_190" x="210.309" y="228.95" width="752.85" height="339.408" filterUnits="userSpaceOnUse" color-interpolation-filters="sRGB">
<feFlood flood-opacity="0" result="BackgroundImageFix"/>
<feColorMatrix in="SourceAlpha" type="matrix" values="0 0 0 0 0 0 0 0 0 0 0 0 0 0 0 0 0 0 127 0" result="hardAlpha"/>
<feOffset dx="20.3645" dy="13.5763"/>
<feComposite in2="hardAlpha" operator="out"/>
<feColorMatrix type="matrix" values="0 0 0 0 0.179167 0 0 0 0 0.179167 0 0 0 0 0.179167 0 0 0 1 0"/>
<feBlend mode="normal" in2="BackgroundImageFix" result="effect1_dropShadow_5_190"/>
<feBlend mode="normal" in="SourceGraphic" in2="effect1_dropShadow_5_190" result="shape"/>
</filter>
<filter id="filter1_d_5_190" x="122.487" y="81.3048" width="506.275" height="176.593" filterUnits="userSpaceOnUse" color-interpolation-filters="sRGB">
<feFlood flood-opacity="0" result="BackgroundImageFix"/>
<feColorMatrix in="SourceAlpha" type="matrix" values="0 0 0 0 0 0 0 0 0 0 0 0 0 0 0 0 0 0 127 0" result="hardAlpha"/>
<feOffset dx="8.81321" dy="5.87547"/>
<feComposite in2="hardAlpha" operator="out"/>
<feColorMatrix type="matrix" values="0 0 0 0 0.179167 0 0 0 0 0.179167 0 0 0 0 0.179167 0 0 0 1 0"/>
<feBlend mode="normal" in2="BackgroundImageFix" result="effect1_dropShadow_5_190"/>
<feBlend mode="normal" in="SourceGraphic" in2="effect1_dropShadow_5_190" result="shape"/>
</filter>
</defs>
</svg>
